<?xml version="1.0" encoding="utf-8"?>
<!-- Generator: Adobe Illustrator 18.1.1, SVG Export Plug-In . SVG Version: 6.00 Build 0)  -->
<svg version="1.1" id="Calque_1" xmlns="http://www.w3.org/2000/svg" xmlns:xlink="http://www.w3.org/1999/xlink" x="0px" y="0px"
	 width="500px" height="500px" viewBox="150 -150 500 500" enable-background="new 150 -150 500 500" xml:space="preserve">
	<path id="shadow" fill="#3F789E" d="M-1047.5,298.6l0-0.2l-161-0.8c0-4.6,1.1-114,44.9-224.3c27.4-69,65.9-124.8,114.3-165.8
		c62.7-53.1,139.8-80,229.2-80c87.1,0,165.4,24.7,232.8,73.4c52.2,37.7,97,89.5,133.1,153.7c1.6,2.8,3.1,5.6,4.7,8.5
		c29.4-42.1,63.5-76.8,101.7-103.2c58.8-40.7,126-61.3,199.7-61.3c73.9,0,140.9,20.7,199.3,61.6C95.2-9.2,133.4,32.5,164.9,84.2
		c34.6-36.9,77.6-64.7,128-82.8c82.5-29.6,156.9-22.8,165.2-21.9l-17.1,160.1l0.6,0.1c-0.5,0-48.9-4.2-98.5,14.9
		c-58.9,22.7-93.8,68.5-106.9,140l-158.4,0l0.1,0.3c-0.1-0.6-12.8-65.4-50.8-127.3C-17.5,94.8-74.7,59.5-148,59.5
		c-40.2,0-75.1,10.3-106.5,31.6c-26.6,18-50.7,44-71.6,77.1c-39.2,62.1-52.9,127.1-53,127.8l0.1-0.3l-158.5-3.8l0,0.2
		c-0.1-0.8-13.4-83.2-58.9-162.3c-24.6-42.8-53.7-76.3-86.7-99.7C-722.7,2.1-767.4-11.5-820-11.5c-50.3,0-90.9,13.4-124,40.8
		c-27.9,23.1-50.9,56.8-68.6,100C-1046.2,211.6-1047.5,297.8-1047.5,298.6z"/>
<circle fill="#FFFFFF" cx="449.5" cy="59.5" r="80.5"/>
</svg>
