<?xml version="1.0" encoding="utf-8"?>
<!-- Generator: Adobe Illustrator 18.1.1, SVG Export Plug-In . SVG Version: 6.00 Build 0)  -->
<svg version="1.1" id="Calque_1" xmlns="http://www.w3.org/2000/svg" xmlns:xlink="http://www.w3.org/1999/xlink" x="0px" y="0px"
	 width="500px" height="500px" viewBox="0 0 500 500" enable-background="new 0 0 500 500" xml:space="preserve">
<g>
	<path fill="#FF831D" d="M661.1,660.1H448.8L138.6,349.9c-3.6-3.6-5.8-8.5-5.8-13.9v0c0-10.8,8.9-19.7,19.7-19.7h77.8V165.4
		c0-10.8,8.9-19.7,19.7-19.7c5.4,0,10.3,2.2,13.9,5.8l508.4,508.4L661.1,660.1z"/>
	<path fill="#FFFFFF" d="M347.5,315.6h-77.8V164.7c0-10.8-8.9-19.7-19.7-19.7s-19.7,8.9-19.7,19.7v150.9h-77.8
		c-10.8,0-19.7,8.9-19.7,19.7v0c0,10.8,8.9,19.7,19.7,19.7h194.9c10.8,0,19.7-8.9,19.7-19.7v0C367.1,324.5,358.3,315.6,347.5,315.6z
		"/>
	<path fill="#DA0037" d="M331,315.6H169c-10.8,0-19.7-8.9-19.7-19.7v0c0-10.8,8.9-19.7,19.7-19.7H331c10.8,0,19.7,8.9,19.7,19.7v0
		C350.7,306.8,341.9,315.6,331,315.6z"/>
	<path fill="#FFD000" d="M311.7,264.4l-119.5,11.5c-10.8,1-20.4-6.9-21.5-17.7l0,0c-1-10.8,6.9-20.4,17.7-21.5l119.5-11.5
		c10.8-1,20.4,6.9,21.5,17.7v0C330.4,253.7,322.4,263.4,311.7,264.4z"/>
	<path fill="#008374" d="M280.8,225.2l-68-11.2c-10.7-1.8-18-11.9-16.2-22.6l0,0c1.8-10.7,11.9-18,22.6-16.2l68,11.2
		c10.7,1.8,18,11.9,16.2,22.6v0C301.7,219.6,291.5,227,280.8,225.2z"/>
</g>
</svg>
