<?xml version="1.0" encoding="utf-8"?>
<!-- Generator: Adobe Illustrator 18.1.1, SVG Export Plug-In . SVG Version: 6.00 Build 0)  -->
<svg version="1.1" id="Calque_1" xmlns="http://www.w3.org/2000/svg" xmlns:xlink="http://www.w3.org/1999/xlink" x="0px" y="0px"
	 width="500px" height="500px" viewBox="0 0 500 500" enable-background="new 0 0 500 500" xml:space="preserve">
<g id="Calque_2">
	<polygon id="shadow" fill="#DBB71D" points="318.3,96.7 1155,926.7 1062.7,939.2 782.8,953.2 226.9,397.2 313.4,268.9 313.4,114.8 
			"/>
</g>
<g>
	<path fill="none" stroke="#FFFFFF" stroke-width="25" stroke-linecap="round" stroke-linejoin="round" stroke-miterlimit="10" d="
		M282,287.4h-85.9c-19.9,0-36.3-16.3-36.3-36.3V132.9c0-19.9,16.3-36.3,36.3-36.3H282c19.9,0,36.3,16.3,36.3,36.3v118.2
		C318.3,271.1,302,287.4,282,287.4z"/>
	
		<line fill="none" stroke="#FFFFFF" stroke-width="25" stroke-linecap="round" stroke-linejoin="round" stroke-miterlimit="10" x1="209.3" y1="229.8" x2="265.1" y2="229.8"/>
	
		<polyline fill="none" stroke="#FFFFFF" stroke-width="25" stroke-linecap="round" stroke-linejoin="round" stroke-miterlimit="10" points="
		313.4,268.9 238.8,389.1 164.8,268.9 	"/>
</g>
<circle fill="#FFFFFF" cx="209.3" cy="174.4" r="17.7"/>
<circle fill="#FFFFFF" cx="265.1" cy="174.4" r="17.7"/>
</svg>
