<?xml version="1.0" encoding="utf-8"?>
<!-- Generator: Adobe Illustrator 18.1.1, SVG Export Plug-In . SVG Version: 6.00 Build 0)  -->
<svg version="1.1" id="Calque_1" xmlns="http://www.w3.org/2000/svg" xmlns:xlink="http://www.w3.org/1999/xlink" x="0px" y="0px"
	 width="500px" height="500px" viewBox="0 0 500 500" enable-background="new 0 0 500 500" xml:space="preserve">
<polygon id="shadow" fill="#FFD000" points="224.5,93.6 993.2,862.3 910.5,861.7 612.3,861.7 141.8,391.1 161.6,376.4 132.2,347 
	180.3,301.7 134.3,255.8 170.7,261.3 213.3,245.3 250,224 252.7,196.7 218,103.3 "/>
<g>
	<path fill="#FFFFFF" d="M169.1,271.4c-19,0-36.4-11.9-43.3-29.5l-30-77c-9.3-23.8,2.5-50.8,26.4-60.1L175.8,84
		c5.4-2.1,11-3.2,16.8-3.2c19,0,36.4,11.9,43.3,29.5l30,77c9.3,23.8-2.5,50.8-26.4,60.1l-53.6,20.9
		C180.5,270.4,174.8,271.4,169.1,271.4z M192.5,108.1c-2.3,0-4.6,0.4-6.8,1.3L132,130.3c-9.8,3.8-14.7,14.9-10.9,24.7l30,77
		c2.8,7.3,10,12.2,17.9,12.2c2.3,0,4.6-0.4,6.8-1.3l53.6-20.9c9.8-3.8,14.7-14.9,10.9-24.7l-30-77
		C207.6,113,200.4,108.1,192.5,108.1z"/>
</g>
<g>
	<path fill="#FFFFFF" d="M141,350.1c-3.1,0-6.2-1-8.7-3.2c-5.8-4.8-6.6-13.4-1.8-19.2c1.9-2.3,46.8-55.7,92.7-60.1
		c53.3-5.1,71.5-73,71.6-73.7c1.9-7.3,9.3-11.7,16.6-9.8c7.3,1.9,11.7,9.3,9.8,16.6c-0.9,3.6-23,87.1-95.5,94.1
		c-28.8,2.8-63.5,37.3-74.4,50.4C148.7,348.5,144.9,350.1,141,350.1z"/>
</g>
<g>
	<path fill="#FFFFFF" d="M187.5,409.4c-22.5,0-40.6-12.7-41.5-13.4c-6.1-4.4-7.5-12.9-3.2-19c4.4-6.1,12.9-7.5,19-3.2
		c0.4,0.3,19.6,13.3,36.5,6.3c15.5-6.4,26.8-28.4,32.9-63.6l1.1-6.2l5.5-3.2c38.8-22.7,120.4-25.8,174.1,62.7
		c3.9,6.4,1.9,14.8-4.6,18.7c-6.5,3.9-14.8,1.9-18.7-4.6c-41.1-67.7-100.1-70.6-131.6-56.1c-8.3,41.7-24.6,67.8-48.3,77.6
		C201.4,408.3,194.2,409.4,187.5,409.4z"/>
</g>
<g>
	<path fill="none" stroke="#000000" stroke-width="5" stroke-linecap="round" stroke-miterlimit="10" d="M-84,245.5l-10.3,2.4
		c-3.2,0.7-6.5-1.3-7.2-4.5l-3.4-14.8c-0.7-3.2,1.3-6.5,4.5-7.2l10.3-2.4c3.2-0.7,6.5,1.3,7.2,4.5l3.4,14.8
		C-78.8,241.5-80.8,244.8-84,245.5z"/>
	
		<line fill="none" stroke="#000000" stroke-width="5" stroke-linecap="round" stroke-miterlimit="10" x1="-100.5" y1="257" x2="-75.1" y2="251.5"/>
	<path fill="none" stroke="#000000" stroke-width="5" stroke-linecap="round" stroke-miterlimit="10" d="M-97.7,272.4
		c0,0,12.3-0.1,11-11.3c13.1-4,15.1,9,15.1,9"/>
</g>
</svg>
