<?xml version="1.0" encoding="utf-8"?>
<!-- Generator: Adobe Illustrator 18.1.1, SVG Export Plug-In . SVG Version: 6.00 Build 0)  -->
<svg version="1.1" id="Calque_1" xmlns:sketch="http://www.bohemiancoding.com/sketch/ns"
	 xmlns="http://www.w3.org/2000/svg" xmlns:xlink="http://www.w3.org/1999/xlink" x="0px" y="0px" width="1024px" height="1024px"
	 viewBox="262 -262 1024 1024" enable-background="new 262 -262 1024 1024" xml:space="preserve">
<title>icon@svg</title>
<desc>Created with Sketch.</desc>
<path fill="#DA0037" d="M1230.7,766.2H318.4c-32,0-58.2-26.2-58.2-58.2v-912.3c0-32,26.2-58.2,58.2-58.2h912.3
	c32,0,58.2,26.2,58.2,58.2V708C1288.9,740,1262.7,766.2,1230.7,766.2z"/>
<g>
	<g>
		<rect x="464.5" y="122.5" fill="#FFFFFF" width="79.7" height="342.2"/>
	</g>
	<g>
		<path fill="#FFFFFF" d="M622.3,464.6h-39.9v-79.7h39.9c50.4,0,91.4-41,91.4-91.4s-41-91.4-91.4-91.4h-39.9v-79.7h39.9
			c94.3,0,171.1,76.8,171.1,171.1C793.4,387.9,716.6,464.6,622.3,464.6z"/>
	</g>
	<g>
		<path fill="#FFFFFF" d="M1034.2,464.6h-39.9c-94.3,0-171.1-76.8-171.1-171.1c0-94.3,76.8-171.1,171.1-171.1h39.9v79.7h-39.9
			c-50.4,0-91.4,41-91.4,91.4s41,91.4,91.4,91.4h39.9V464.6z"/>
	</g>
	<g>
		<polygon fill="#FFFFFF" points="1151,464.6 1071.3,464.6 1071.3,333.4 978.3,333.4 978.3,253.7 1151,253.7 		"/>
	</g>
	<g>
		<path fill="#FFFFFF" d="M592.7,70h-66c-5,0-9.1-4.1-9.1-9.1v-66c0-5,4.1-9.1,9.1-9.1h66c5,0,9.1,4.1,9.1,9.1v66
			C601.7,66,597.7,70,592.7,70z"/>
	</g>
	<g>
		<rect x="398" y="-14.1" fill="#FFFFFF" width="84.2" height="84.2"/>
	</g>
</g>
</svg>
