<?xml version="1.0" encoding="utf-8"?>
<!-- Generator: Adobe Illustrator 18.1.1, SVG Export Plug-In . SVG Version: 6.00 Build 0)  -->
<svg version="1.1" id="Calque_1" xmlns="http://www.w3.org/2000/svg" xmlns:xlink="http://www.w3.org/1999/xlink" x="0px" y="0px"
	 width="500px" height="500px" viewBox="-999 1001 500 500" enable-background="new -999 1001 500 500" xml:space="preserve">
<path id="shadow" fill="#FF831D" d="M-148.7,1646.7l-426.7-429.6l-3.6,3.5c8.4,7.5,13.6,18.3,13.6,30.4c0,11.7-4.9,22.3-12.8,29.7
	V1251h-107.5l-33.6-33.9l-3.6,3.5c8.4,7.5,13.6,18.3,13.6,30.4c0,0,0,0,0,0h-118.3l-33.6-33.9l-3.6,3.5c8.4,7.5,13.6,18.3,13.6,30.4
	c0,22.5-18.3,40.8-40.8,40.8c-12.8,0-24.2-5.9-31.7-15.1l-3.6,3.5l367,366.7L-148.7,1646.7z"/>
<g>
	<circle fill="#FFFFFF" cx="-892" cy="1251" r="45.5"/>
	<circle fill="#FFFFFF" cx="-749" cy="1251" r="45.5"/>
	<circle fill="#FFFFFF" cx="-606" cy="1251" r="45.5"/>
	
		<line fill="none" stroke="#FFFFFF" stroke-width="25" stroke-linecap="round" stroke-linejoin="round" stroke-miterlimit="10" x1="-892" y1="1251" x2="-606" y2="1251"/>
</g>
</svg>
