<?xml version="1.0" encoding="utf-8"?>
<!-- Generator: Adobe Illustrator 18.1.1, SVG Export Plug-In . SVG Version: 6.00 Build 0)  -->
<svg version="1.1" id="Calque_1" xmlns="http://www.w3.org/2000/svg" xmlns:xlink="http://www.w3.org/1999/xlink" x="0px" y="0px"
	 width="500px" height="500px" viewBox="0 0 500 500" enable-background="new 0 0 500 500" xml:space="preserve">
<polyline fill="#34CAD2" points="433.4,154.7 900,621.3 700,623.3 381,623.3 124.4,366.8 "/>
<g>
	<g>
		<path fill="#34CAD2" d="M340,409.4l-128.4-38.7c-9.5-2.9-14.9-13-12-22.4l67.4-223.5c2.9-9.5,13-14.9,22.4-12l128.4,38.7
			c9.5,2.9,14.9,13,12,22.4l-67.4,223.5C359.6,406.8,349.5,412.2,340,409.4z"/>
		<path fill="#FCFCFC" d="M341.6,415.8l-134.8-40.7c-10.7-3.2-16.9-14.6-13.6-25.4l69.3-229.9c3.2-10.7,14.6-16.9,25.4-13.6
			l134.8,40.7c10.7,3.2,16.9,14.6,13.6,25.4l-69.3,229.9C363.7,412.9,352.3,419,341.6,415.8z M284.5,117.1c-4.7-1.4-9.7,1.3-11.2,6
			L204,353.1c-1.4,4.7,1.3,9.7,6,11.2l134.8,40.7c4.7,1.4,9.7-1.3,11.2-6L425.4,169c1.4-4.7-1.3-9.7-6-11.2L284.5,117.1z"/>
	</g>
	<circle fill="#FFFFFF" cx="327.6" cy="220.5" r="42.6"/>
	<circle cx="339.9" cy="208.1" r="22"/>
	
		<ellipse transform="matrix(0.9574 0.2887 -0.2887 0.9574 96.3219 -80.3203)" fill="#34CAD2" cx="320.5" cy="286.4" rx="62.1" ry="43.4"/>
	<circle fill="#FFFFFF" cx="350.4" cy="198.5" r="10"/>
	
		<ellipse transform="matrix(0.9574 0.2887 -0.2887 0.9574 93.6751 -80.6453)" fill="#04727A" cx="320.3" cy="277.3" rx="6.1" ry="8.7"/>
	
		<ellipse transform="matrix(0.9574 0.2887 -0.2887 0.9574 95.9984 -85.5902)" fill="#04727A" cx="338.2" cy="282.7" rx="6.1" ry="8.7"/>
	<path fill="#04727A" d="M322.5,321c0,0-36.7-24.7-43.6-1.9c-6.9,22.8,34.2,25.4,32.8,4.4L322.5,321z"/>
</g>
<g>
	<g>
		<path fill="#34CAD2" d="M276.6,337.3l-131,29c-9.7,2.1-19.3-4-21.5-13.7L73.7,124.7c-2.1-9.7,4-19.3,13.7-21.5l131-29
			c9.7-2.1,19.3,4,21.5,13.7l50.5,227.9C292.4,325.5,286.3,335.2,276.6,337.3z"/>
		<path fill="#FCFCFC" d="M281.1,342.2l-137.5,30.5c-11,2.4-21.8-4.5-24.3-15.5L67.4,122.7c-2.4-11,4.5-21.8,15.5-24.3L220.4,68
			c11-2.4,21.8,4.5,24.3,15.5l51.9,234.5C299,328.9,292.1,339.8,281.1,342.2z M85.3,109.5c-4.8,1.1-7.9,5.9-6.8,10.7l51.9,234.5
			c1.1,4.8,5.9,7.9,10.7,6.8l137.5-30.5c4.8-1.1,7.9-5.9,6.8-10.7L233.5,85.9c-1.1-4.8-5.9-7.9-10.7-6.8L85.3,109.5z"/>
	</g>
	<circle fill="#FFFFFF" cx="173.5" cy="178.7" r="42.6"/>
	<circle cx="178.1" cy="161.8" r="22"/>
	
		<ellipse transform="matrix(0.9763 -0.2162 0.2162 0.9763 -47.0998 48.8039)" fill="#34CAD2" cx="199.5" cy="239.6" rx="62.1" ry="43.4"/>
	<circle fill="#FFFFFF" cx="182.6" cy="148.3" r="10"/>
	
		<ellipse transform="matrix(0.9763 -0.2162 0.2162 0.9763 -45.5099 47.6103)" fill="#04727A" cx="194.8" cy="231.8" rx="6.1" ry="8.7"/>
	
		<ellipse transform="matrix(0.9763 -0.2162 0.2162 0.9763 -44.2018 51.4677)" fill="#04727A" cx="213.1" cy="227.7" rx="6.1" ry="8.7"/>
	<path fill="#04727A" d="M218.2,268.8c0,0-44.1-3.6-39,19.6s42.3,5.5,30.8-12.2L218.2,268.8z"/>
</g>
</svg>
